# File created by Blade
# Date/Time:  Tue Apr 07 20:13:55 2015
# Frame Rate: 120.000 fps
#------------------------------------------------------
:FULLY-SPECIFIED
:DEGREES
1771
root 3.144991 32.436345 -10.965986 7.617878 8.499150 -1.119632
Spine 3.874672 -12.372143 -6.431475
Head 5.042374 -4.307023 7.076648
LeftShoulder 1.773297 36.721640 23.264093
LeftArm 73.628261 23.894171 -59.453326
LeftForeArm -17.577409 -0.000000 11.381298
LeftHand 6.075048 -0.000000 2.119618
LeftHandThumb1 -26.253704 0.000000 33.147579
RightShoulder 4.719641 -3.055010 -15.707951
RightArm 26.595011 -21.818289 82.063049
RightForeArm 11.254826 -0.000000 14.295651
RightHand 4.034834 -0.000000 7.556507
RightHandThumb1 -24.326973 -0.000000 -32.862282
LeftUpLeg -13.214696 0.493454 -4.982107
LeftLeg 9.895356 -0.000000 -0.000000
LeftFoot -11.020145 10.973803 -13.980306
LeftToeBase -8.529330 -0.000000 0.000000
RightUpLeg -39.953781 2.059217 -1.836870
RightLeg 48.575837 -0.000000 -0.000000
RightFoot 8.019158 -11.933118 6.496647
RightToeBase 0.767585 -0.000000 -0.000000
1772
root 3.156168 32.427351 -11.002720 7.442611 8.565059 -1.009840
Spine 4.195985 -12.582746 -6.654737
Head 5.085578 -4.243486 7.245492
LeftShoulder 1.900080 36.569040 23.420891
LeftArm 73.819716 23.934526 -59.239922
LeftForeArm -17.509425 0.000000 10.996775
LeftHand 5.963504 -0.000000 1.776750
LeftHandThumb1 -26.253704 0.000000 33.147579
RightShoulder 4.826200 -3.041034 -15.624380
RightArm 26.798561 -21.972088 81.994161
RightForeArm 11.228521 -0.000000 14.421184
RightHand 3.997279 -0.000000 7.473136
RightHandThumb1 -24.326973 -0.000000 -32.862282
LeftUpLeg -13.154888 0.720294 -5.106592
LeftLeg 10.056927 -0.000000 -0.000000
LeftFoot -11.260428 10.356422 -14.714312
LeftToeBase -8.014689 -0.000000 0.000000
RightUpLeg -40.330624 2.065949 -2.014688
RightLeg 49.291685 -0.000000 -0.000000
RightFoot 8.483518 -11.982743 6.615756
RightToeBase 1.709731 -0.000000 -0.000000
1773
root 3.164119 32.419089 -11.034770 7.295262 8.668858 -0.919055
Spine 4.459786 -12.771986 -6.855329
Head 5.168817 -4.241150 7.416934
LeftShoulder 2.047794 36.428110 23.572250
LeftArm 74.054639 23.995512 -58.944183
LeftForeArm -17.475728 -0.000000 10.588595
LeftHand 5.932120 -0.000000 1.482191
LeftHandThumb1 -26.253704 0.000000 33.147579
RightShoulder 4.901516 -3.060409 -15.568218
RightArm 26.927762 -22.059325 82.020777
RightForeArm 11.086643 0.000000 14.565832
RightHand 4.045736 -0.000000 7.427506
RightHandThumb1 -24.326973 -0.000000 -32.862282
LeftUpLeg -13.113599 0.890941 -5.198664
LeftLeg 10.208582 -0.000000 -0.000000
LeftFoot -11.494718 9.787029 -15.402924
LeftToeBase -7.506900 -0.000000 0.000000
RightUpLeg -40.668121 2.035886 -2.146534
RightLeg 49.924698 -0.000000 -0.000000
RightFoot 9.029795 -12.012334 6.312658
RightToeBase 1.728334 -0.000000 -0.000000
1774
root 3.173755 32.410941 -11.061739 7.154501 8.767110 -0.798216
Spine 4.686926 -12.950828 -7.086620
Head 5.315708 -4.241705 7.556388
LeftShoulder 2.152391 36.323816 23.672272
LeftArm 74.303733 24.057911 -58.740194
LeftForeArm -17.544683 -0.000000 10.115431
LeftHand 5.935849 -0.000000 1.406510
LeftHandThumb1 -26.253704 0.000000 33.147579
RightShoulder 4.963253 -3.047333 -15.545550
RightArm 26.976125 -22.169113 82.122977
RightForeArm 11.055392 -0.000000 14.714142
RightHand 4.145370 -0.000000 7.408571
RightHandThumb1 -24.326973 -0.000000 -32.862282
LeftUpLeg -13.064669 1.089229 -5.334396
LeftLeg 10.363462 -0.000000 -0.000000
LeftFoot -11.618434 9.281077 -15.761597
LeftToeBase -7.063548 -0.000000 0.000000
RightUpLeg -40.958767 1.992352 -2.296847
RightLeg 50.527772 -0.000000 -0.000000
RightFoot 9.326371 -12.051368 6.253504
RightToeBase 2.662836 -0.000000 -0.000000
1775
root 3.179302 32.404156 -11.081919 7.019807 8.869743 -0.703374
Spine 4.871607 -13.097601 -7.313030
Head 5.508324 -4.304697 7.752827
LeftShoulder 2.297916 36.197988 23.819429
LeftArm 74.450725 24.134879 -58.561504
LeftForeArm -17.494335 -0.000000 9.753706
LeftHand 5.791746 -0.000000 1.067570
LeftHandThumb1 -26.253704 0.000000 33.147579
RightShoulder 5.007118 -3.119164 -15.527583
RightArm 27.058066 -22.318681 82.199405
RightForeArm 11.045315 0.000000 14.873835
RightHand 4.141622 0.000000 7.337522
RightHandThumb1 -24.326973 -0.000000 -32.862282
LeftUpLeg -13.004122 1.258952 -5.429607
LeftLeg 10.507902 -0.000000 -0.000000
LeftFoot -11.836338 8.734546 -16.335486
LeftToeBase -6.310100 -0.000000 0.000000
RightUpLeg -41.187343 1.976241 -2.405797
RightLeg 51.053427 -0.000000 -0.000000
RightFoot 9.501555 -12.198225 6.112559
RightToeBase 3.310084 -0.000000 -0.000000
1776
root 3.181900 32.398576 -11.096826 6.890602 8.942869 -0.628663
Spine 5.013547 -13.198386 -7.529509
Head 5.748846 -4.391985 7.963975
LeftShoulder 2.418590 36.133544 23.939592
LeftArm 74.629254 24.189525 -58.373367
LeftForeArm -17.342755 -0.000000 9.372612
LeftHand 5.721782 -0.000000 0.674968
LeftHandThumb1 -26.253704 0.000000 33.147579
RightShoulder 5.088204 -3.178448 -15.545483
RightArm 27.016096 -22.407618 82.380858
RightForeArm 11.015545 -0.000000 15.079344
RightHand 4.166035 -0.000000 7.257016
RightHandThumb1 -24.326973 -0.000000 -32.862282
LeftUpLeg -12.931792 1.420119 -5.499189
LeftLeg 10.636000 -0.000000 -0.000000
LeftFoot -11.971955 8.232286 -16.757116
LeftToeBase -5.756580 -0.000000 0.000000
RightUpLeg -41.367543 2.017563 -2.490083
RightLeg 51.530306 -0.000000 -0.000000
RightFoot 9.582770 -12.416496 6.018238
RightToeBase 3.885919 -0.000000 -0.000000
1777
root 3.181013 32.394375 -11.114625 6.827472 8.984644 -0.585550
Spine 5.064761 -13.257794 -7.704959
Head 5.999150 -4.488207 8.169791
LeftShoulder 2.506119 36.008025 24.022829
LeftArm 74.755613 24.309936 -58.180418
LeftForeArm -17.490850 -0.000000 9.030336
LeftHand 5.674013 0.000000 0.441349
LeftHandThumb1 -26.253704 0.000000 33.147579
RightShoulder 5.150438 -3.236218 -15.592106
RightArm 26.943514 -22.534309 82.588411
RightForeArm 11.073561 -0.000000 15.296929
RightHand 4.230404 -0.000000 7.160383
RightHandThumb1 -24.326973 -0.000000 -32.862282
LeftUpLeg -12.944029 1.599979 -5.529969
LeftLeg 10.768094 -0.000000 -0.000000
LeftFoot -12.155659 7.625438 -17.550950
LeftToeBase -5.523713 -0.000000 0.000000
RightUpLeg -41.576872 1.892238 -2.449173
RightLeg 51.918507 -0.000000 -0.000000
RightFoot 9.656649 -12.609892 5.675641
RightToeBase 3.955660 -0.000000 -0.000000
1778
root 3.179821 32.391801 -11.122477 6.733043 9.018021 -0.538390
Spine 5.108328 -13.275290 -7.904018
Head 6.303100 -4.633429 8.400425
LeftShoulder 2.602658 35.933505 24.107811
LeftArm 74.872817 24.416528 -58.021086
LeftForeArm -17.411986 -0.000000 8.742499
LeftHand 5.254456 0.000000 1.028130
LeftHandThumb1 -26.253704 0.000000 33.147579
RightShoulder 5.180257 -3.326501 -15.632655
RightArm 26.874412 -22.689671 82.795044
RightForeArm 11.158725 -0.000000 15.484249
RightHand 4.192546 -0.000000 7.161889
RightHandThumb1 -24.326973 -0.000000 -32.862282
LeftUpLeg -12.891329 1.774802 -5.552649
LeftLeg 10.878784 -0.000000 -0.000000
LeftFoot -12.447402 7.062287 -18.356145
LeftToeBase -4.736442 -0.000000 0.000000
RightUpLeg -41.681477 1.960822 -2.470465
RightLeg 52.263297 -0.000000 -0.000000
RightFoot 9.520294 -12.906721 5.727707
RightToeBase 4.464186 -0.000000 -0.000000
1779
root 3.182351 32.388289 -11.110895 6.533306 9.120026 -0.460260
Spine 5.224758 -13.347473 -8.148951
Head 6.656362 -4.806877 8.599936
LeftShoulder 2.677065 35.877307 24.148942
LeftArm 74.898401 24.518562 -57.954522
LeftForeArm -17.355820 0.000000 8.499135
LeftHand 5.140289 -0.000000 0.782682
LeftHandThumb1 -26.253704 0.000000 33.147579
RightShoulder 5.236054 -3.487139 -15.705048
RightArm 26.769164 -22.798667 83.057670
RightForeArm 11.272424 -0.000000 15.721376
RightHand 4.258520 -0.000000 7.094047
RightHandThumb1 -24.326973 -0.000000 -32.862282
LeftUpLeg -12.671170 1.894808 -5.593917
LeftLeg 10.955496 -0.000000 -0.000000
LeftFoot -12.730167 6.469393 -19.159146
LeftToeBase -4.250312 -0.000000 0.000000
RightUpLeg -41.587246 2.269834 -2.620087
RightLeg 52.609359 -0.000000 -0.000000
RightFoot 9.065103 -13.370848 6.268723
RightToeBase 4.972736 -0.000000 -0.000000
